<svg width="356" height="354" viewBox="0 0 356 354" fill="none" xmlns="http://www.w3.org/2000/svg">
<path d="M305.907 61.5308C365.326 122.616 371.326 219.797 316.673 288.013C261.54 356.845 164.131 371.893 91.3057 325.788" stroke="#F8E7E1" stroke-miterlimit="10"/>
<path d="M204.144 166.425L225.436 203.549C229.276 199.504 233.013 195.459 236.647 191.483C240.282 187.472 243.162 184.216 245.288 181.645C246.556 180.034 247.996 178.354 249.539 176.606C251.082 174.858 252.557 173.007 253.928 171.087C255.299 169.167 256.465 167.248 257.357 165.328C258.248 163.409 258.728 161.592 258.728 159.878C258.728 157.547 257.7 155.559 255.677 153.948L269.597 142.91C271.414 145.035 271.791 147.812 270.729 151.239C269.974 153.81 268.088 157.204 265.037 161.42C261.985 165.637 258.351 170.23 254.065 175.201C249.779 180.171 245.219 185.279 240.385 190.558C235.516 195.837 230.922 200.841 226.533 205.538L256.157 256.75C257.322 258.67 258.42 260.624 259.448 262.578C260.477 264.566 261.677 266.349 263.048 267.925C264.42 269.537 266.031 270.839 267.848 271.833C269.666 272.862 271.86 273.342 274.397 273.342V275.433H239.493V273.342C241.962 273.342 243.711 272.93 244.773 272.142C245.836 271.353 246.385 270.222 246.385 268.782C246.385 267.343 245.973 265.594 245.185 263.503C244.396 261.412 243.231 259.15 241.756 256.716L217.755 214.93C216.144 216.644 214.224 218.735 211.995 221.237C209.767 223.74 207.366 226.482 204.864 229.396C202.361 232.344 199.892 235.36 197.492 238.514C195.092 241.668 192.897 244.719 190.943 247.701C188.954 250.683 187.377 253.494 186.212 256.099C185.046 258.704 184.463 260.967 184.463 262.886C184.463 265.869 185.492 268.131 187.514 269.605L172.771 281.294C170.645 278.312 170.645 274.37 172.771 269.434C173.731 267.411 175.377 264.6 177.743 261.035C180.074 257.47 182.851 253.528 186.074 249.175C189.263 244.856 192.795 240.331 196.635 235.635C200.475 230.938 204.315 226.413 208.155 222.026C209.115 220.86 210.315 219.489 211.755 217.947C213.195 216.404 214.807 214.724 216.624 212.908L195.743 176.126" fill="#F8E7E1"/>
<path d="M153.057 218.152H85.8545V216.061C88.6317 216.061 90.7575 215.753 92.2661 215.101C93.7747 214.45 94.8376 213.456 95.5577 212.05C96.2434 210.679 96.6548 208.931 96.7577 206.84C96.8606 204.749 96.9291 202.281 96.9291 199.401V109.145C96.9291 106.265 96.8606 103.797 96.7577 101.706C96.6548 99.6151 96.2434 97.9012 95.5577 96.4957C94.8719 95.1246 93.7747 94.0962 92.2661 93.4449C90.7575 92.7936 88.6317 92.4851 85.8545 92.4851V90.394H172.772V111.03H170.68C170.68 107.396 170.2 104.483 169.24 102.22C168.28 99.9579 166.909 98.2097 165.16 96.9413C163.411 95.673 161.285 94.7818 158.851 94.3019C156.382 93.8219 153.742 93.582 150.862 93.582H109.718V149.594H137.422C140.302 149.594 142.771 149.525 144.862 149.423C146.954 149.32 148.668 148.908 150.074 148.223C151.445 147.537 152.474 146.44 153.125 144.932C153.777 143.424 154.085 141.298 154.085 138.522H156.177V163.82H154.085C154.085 161.043 153.777 158.918 153.125 157.41C152.474 155.901 151.479 154.839 150.074 154.119C148.702 153.433 146.954 153.022 144.862 152.919C142.771 152.816 140.302 152.748 137.422 152.748H109.718V198.202C109.718 201.081 109.787 203.549 109.89 205.64C109.992 207.731 110.404 209.445 111.09 210.851C111.775 212.222 112.873 213.25 114.381 213.902C115.89 214.553 118.016 214.861 120.793 214.861H150.897C153.777 214.861 153.674 214.793 156.108 214.313" fill="#F8E7E1"/>
<path d="M280.329 39.3179C206.406 -19.8477 98.54 -7.91863 39.3267 65.9871C-19.8524 139.858 -7.92056 247.735 65.9675 306.9" stroke="#F8E7E1" stroke-miterlimit="10"/>
<path d="M76.5967 316.979L293.084 50.8701" stroke="#F8E7E1" stroke-miterlimit="10"/>
</svg>
