<svg width="186" height="125" viewBox="0 0 186 125" fill="none" xmlns="http://www.w3.org/2000/svg">
<path d="M117.5 75.7415C118.328 75.7415 119 75.0916 119 74.2899C119 73.4883 118.328 72.8384 117.5 72.8384C116.672 72.8384 116 73.4883 116 74.2899C116 75.0916 116.672 75.7415 117.5 75.7415Z" fill="#F8E7E1"/>
<path d="M141.5 110.903C142.328 110.903 143 110.253 143 109.452C143 108.65 142.328 108 141.5 108C140.672 108 140 108.65 140 109.452C140 110.253 140.672 110.903 141.5 110.903Z" fill="#F8E7E1"/>
<path d="M131.5 54.9031C132.328 54.9031 133 54.2532 133 53.4515C133 52.6499 132.328 52 131.5 52C130.672 52 130 52.6499 130 53.4515C130 54.2532 130.672 54.9031 131.5 54.9031Z" fill="#F8E7E1"/>
<path d="M184.5 41.9031C185.328 41.9031 186 41.2532 186 40.4515C186 39.6499 185.328 39 184.5 39C183.672 39 183 39.6499 183 40.4515C183 41.2532 183.672 41.9031 184.5 41.9031Z" fill="#F8E7E1"/>
<path d="M110.5 58.9031C111.328 58.9031 112 58.2532 112 57.4515C112 56.6499 111.328 56 110.5 56C109.672 56 109 56.6499 109 57.4515C109 58.2532 109.672 58.9031 110.5 58.9031Z" fill="#F8E7E1"/>
<path d="M96.5 2.90308C97.3284 2.90308 98 2.2532 98 1.45154C98 0.649878 97.3284 0 96.5 0C95.6716 0 95 0.649878 95 1.45154C95 2.2532 95.6716 2.90308 96.5 2.90308Z" fill="#F8E7E1"/>
<path d="M110.5 44.9031C111.328 44.9031 112 44.2532 112 43.4515C112 42.6499 111.328 42 110.5 42C109.672 42 109 42.6499 109 43.4515C109 44.2532 109.672 44.9031 110.5 44.9031Z" fill="#F8E7E1"/>
<path d="M82.5 55.9031C83.3284 55.9031 84 55.2532 84 54.4515C84 53.6499 83.3284 53 82.5 53C81.6716 53 81 53.6499 81 54.4515C81 55.2532 81.6716 55.9031 82.5 55.9031Z" fill="#F8E7E1"/>
<path d="M1.5 80.9031C2.32843 80.9031 3 80.2532 3 79.4515C3 78.6499 2.32843 78 1.5 78C0.671573 78 0 78.6499 0 79.4515C0 80.2532 0.671573 80.9031 1.5 80.9031Z" fill="#F8E7E1"/>
<path d="M88.5 78.9031C89.3284 78.9031 90 78.2532 90 77.4515C90 76.6499 89.3284 76 88.5 76C87.6716 76 87 76.6499 87 77.4515C87 78.2532 87.6716 78.9031 88.5 78.9031Z" fill="#F8E7E1"/>
<path d="M82.5 124.903C83.3284 124.903 84 124.253 84 123.452C84 122.65 83.3284 122 82.5 122C81.6716 122 81 122.65 81 123.452C81 124.253 81.6716 124.903 82.5 124.903Z" fill="#F8E7E1"/>
</svg>
