<svg width="23" height="20" viewBox="0 0 23 20" fill="none" xmlns="http://www.w3.org/2000/svg">
<path d="M12.3013 0.380863C12.5409 0.136984 12.8657 0 13.2043 0C13.543 0 13.8678 0.136984 14.1074 0.380863L22.6263 9.06289C22.8656 9.30707 23 9.63807 23 9.98319C23 10.3283 22.8656 10.6593 22.6263 10.9035L14.1074 19.5855C13.9904 19.7135 13.8493 19.8161 13.6925 19.8873C13.5358 19.9584 13.3666 19.9967 13.195 19.9998C13.0234 20.0029 12.853 19.9707 12.6939 19.9052C12.5348 19.8397 12.3902 19.7422 12.2689 19.6186C12.1476 19.4949 12.0519 19.3476 11.9876 19.1854C11.9234 19.0233 11.8918 18.8496 11.8948 18.6747C11.8979 18.4999 11.9354 18.3274 12.0053 18.1677C12.0751 18.0079 12.1758 17.8641 12.3013 17.7449L18.6394 11.2855H1.27784C0.938936 11.2855 0.613912 11.1483 0.374271 10.9041C0.134629 10.6598 0 10.3286 0 9.98319C0 9.63779 0.134629 9.30655 0.374271 9.06232C0.613912 8.81809 0.938936 8.68088 1.27784 8.68088H18.6394L12.3013 2.22145C12.062 1.97727 11.9276 1.64627 11.9276 1.30116C11.9276 0.956046 12.062 0.625046 12.3013 0.380863Z" fill="#15151D"/>
</svg>
