<svg width="18" height="24" viewBox="0 0 18 24" fill="none" xmlns="http://www.w3.org/2000/svg">
<path d="M9.83505 23.1521C9.58501 23.4021 9.24594 23.5425 8.89238 23.5425C8.53883 23.5425 8.19975 23.4021 7.94972 23.1521L0.407051 15.6094C0.279704 15.4864 0.178128 15.3393 0.108249 15.1766C0.0383705 15.014 0.00158876 14.839 5.03418e-05 14.662C-0.00148808 14.4849 0.0322479 14.3094 0.0992891 14.1455C0.16633 13.9816 0.265334 13.8328 0.390525 13.7076C0.515715 13.5824 0.664584 13.4834 0.828446 13.4163C0.992307 13.3493 1.16788 13.3156 1.34492 13.3171C1.52196 13.3186 1.69692 13.3554 1.85959 13.4253C2.02226 13.4952 2.16939 13.5968 2.29238 13.7241L7.55905 18.9908V1.33343C7.55905 0.97981 7.69953 0.64067 7.94958 0.390622C8.19962 0.140573 8.53876 9.84805e-05 8.89238 9.84805e-05C9.24601 9.84805e-05 9.58514 0.140573 9.83519 0.390622C10.0852 0.64067 10.2257 0.97981 10.2257 1.33343V18.9908L15.4924 13.7241C15.7439 13.4812 16.0807 13.3468 16.4303 13.3499C16.7798 13.3529 17.1143 13.4931 17.3615 13.7403C17.6087 13.9876 17.7489 14.322 17.752 14.6716C17.755 15.0212 17.6206 15.358 17.3777 15.6094L9.83505 23.1521Z" fill="#15151D"/>
</svg>
