<svg width="64" height="65" viewBox="0 0 64 65" fill="none" xmlns="http://www.w3.org/2000/svg">
<path d="M50.7755 10.5267C47.9861 7.75165 46.4486 4.18853 46.449 0.5H33.8367V44.5889C33.7415 46.9753 32.5858 49.2363 30.6135 50.8947C28.6412 52.553 26.0065 53.4792 23.2653 53.4778C17.4694 53.4778 12.6531 49.3533 12.6531 44.2333C12.6531 38.1178 19.4286 33.5311 26.4082 35.4156V24.18C12.3265 22.5444 0 32.0733 0 44.2333C0 56.0733 11.2653 64.5 23.2245 64.5C36.0408 64.5 46.449 55.4333 46.449 44.2333V21.8689C51.5633 25.0684 57.7035 26.785 64 26.7756V15.7889C64 15.7889 56.3265 16.1089 50.7755 10.5267Z" fill="#F8E7E1"/>
</svg>
