<svg width="23" height="20" viewBox="0 0 23 20" fill="none" xmlns="http://www.w3.org/2000/svg">
<path d="M10.6987 0.380863C10.4591 0.136984 10.1343 0 9.79565 0C9.45702 0 9.13224 0.136984 8.89264 0.380863L0.373708 9.06289C0.13441 9.30707 3.17652e-07 9.63807 3.17652e-07 9.98319C3.17652e-07 10.3283 0.13441 10.6593 0.373708 10.9035L8.89264 19.5855C9.00963 19.7135 9.1507 19.8161 9.30745 19.8873C9.4642 19.9584 9.63341 19.9967 9.80498 19.9998C9.97656 20.0029 10.147 19.9707 10.3061 19.9052C10.4652 19.8397 10.6098 19.7422 10.7311 19.6186C10.8524 19.4949 10.9481 19.3476 11.0124 19.1854C11.0766 19.0233 11.1082 18.8496 11.1052 18.6747C11.1021 18.4999 11.0646 18.3274 10.9947 18.1677C10.9249 18.0079 10.8242 17.8641 10.6987 17.7449L4.36057 11.2855H21.7222C22.0611 11.2855 22.3861 11.1483 22.6257 10.9041C22.8654 10.6598 23 10.3286 23 9.98319C23 9.63779 22.8654 9.30655 22.6257 9.06232C22.3861 8.81809 22.0611 8.68088 21.7222 8.68088H4.36057L10.6987 2.22145C10.938 1.97727 11.0724 1.64627 11.0724 1.30116C11.0724 0.956046 10.938 0.625046 10.6987 0.380863Z" fill="#F8E7E1"/>
</svg>
