<svg width="64" height="65" viewBox="0 0 64 65" fill="none" xmlns="http://www.w3.org/2000/svg">
<path d="M6.4 64.5C4.64 64.5 3.13387 63.7173 1.8816 62.152C0.629333 60.5867 0.00213333 58.7027 0 56.5V8.5C0 6.3 0.6272 4.41733 1.8816 2.852C3.136 1.28667 4.64213 0.502667 6.4 0.5H57.6C59.36 0.5 60.8672 1.284 62.1216 2.852C63.376 4.42 64.0021 6.30267 64 8.5V56.5C64 58.7 63.3739 60.584 62.1216 62.152C60.8693 63.72 59.3621 64.5027 57.6 64.5H6.4ZM57.6 16.5L33.68 35.2C33.4133 35.4 33.1339 35.5507 32.8416 35.652C32.5493 35.7533 32.2688 35.8027 32 35.8C31.7312 35.7973 31.4517 35.748 31.1616 35.652C30.8715 35.556 30.5909 35.4053 30.32 35.2L6.4 16.5V56.5H57.6V16.5ZM32 28.5L57.6 8.5H6.4L32 28.5ZM6.4 17.5V11.6V11.7V11.652V17.5Z" fill="#F8E7E1"/>
</svg>
