<svg width="64" height="65" viewBox="0 0 64 65" fill="none" xmlns="http://www.w3.org/2000/svg">
<path d="M18.56 0.5H45.44C55.68 0.5 64 8.82 64 19.06V45.94C64 50.8624 62.0446 55.5832 58.5639 59.0639C55.0832 62.5446 50.3624 64.5 45.44 64.5H18.56C8.32 64.5 0 56.18 0 45.94V19.06C0 14.1376 1.95542 9.41677 5.4361 5.9361C8.91677 2.45542 13.6376 0.5 18.56 0.5ZM17.92 6.9C14.8647 6.9 11.9345 8.11371 9.77413 10.2741C7.61371 12.4345 6.4 15.3647 6.4 18.42V46.58C6.4 52.948 11.552 58.1 17.92 58.1H46.08C49.1353 58.1 52.0655 56.8863 54.2259 54.7259C56.3863 52.5655 57.6 49.6353 57.6 46.58V18.42C57.6 12.052 52.448 6.9 46.08 6.9H17.92ZM48.8 11.7C49.8609 11.7 50.8783 12.1214 51.6284 12.8716C52.3786 13.6217 52.8 14.6391 52.8 15.7C52.8 16.7609 52.3786 17.7783 51.6284 18.5284C50.8783 19.2786 49.8609 19.7 48.8 19.7C47.7391 19.7 46.7217 19.2786 45.9716 18.5284C45.2214 17.7783 44.8 16.7609 44.8 15.7C44.8 14.6391 45.2214 13.6217 45.9716 12.8716C46.7217 12.1214 47.7391 11.7 48.8 11.7ZM32 16.5C36.2435 16.5 40.3131 18.1857 43.3137 21.1863C46.3143 24.1869 48 28.2565 48 32.5C48 36.7435 46.3143 40.8131 43.3137 43.8137C40.3131 46.8143 36.2435 48.5 32 48.5C27.7565 48.5 23.6869 46.8143 20.6863 43.8137C17.6857 40.8131 16 36.7435 16 32.5C16 28.2565 17.6857 24.1869 20.6863 21.1863C23.6869 18.1857 27.7565 16.5 32 16.5ZM32 22.9C29.4539 22.9 27.0121 23.9114 25.2118 25.7118C23.4114 27.5121 22.4 29.9539 22.4 32.5C22.4 35.0461 23.4114 37.4879 25.2118 39.2882C27.0121 41.0886 29.4539 42.1 32 42.1C34.5461 42.1 36.9879 41.0886 38.7882 39.2882C40.5886 37.4879 41.6 35.0461 41.6 32.5C41.6 29.9539 40.5886 27.5121 38.7882 25.7118C36.9879 23.9114 34.5461 22.9 32 22.9Z" fill="#F8E7E1"/>
</svg>
