<svg width="18" height="24" viewBox="0 0 18 24" fill="none" xmlns="http://www.w3.org/2000/svg">
<path d="M7.9169 23.1521C8.16694 23.4021 8.50602 23.5425 8.85957 23.5425C9.21312 23.5425 9.5522 23.4021 9.80224 23.1521L17.3449 15.6094C17.4722 15.4864 17.5738 15.3393 17.6437 15.1766C17.7136 15.014 17.7504 14.839 17.7519 14.662C17.7534 14.4849 17.7197 14.3094 17.6527 14.1455C17.5856 13.9816 17.4866 13.8328 17.3614 13.7076C17.2362 13.5824 17.0874 13.4834 16.9235 13.4163C16.7596 13.3493 16.5841 13.3156 16.407 13.3171C16.23 13.3186 16.055 13.3554 15.8924 13.4253C15.7297 13.4952 15.5826 13.5968 15.4596 13.7241L10.1929 18.9908V1.33343C10.1929 0.97981 10.0524 0.64067 9.80238 0.390622C9.55233 0.140573 9.21319 9.84805e-05 8.85957 9.84805e-05C8.50595 9.84805e-05 8.16681 0.140573 7.91676 0.390622C7.66671 0.64067 7.52624 0.97981 7.52624 1.33343V18.9908L2.25957 13.7241C2.0081 13.4812 1.6713 13.3468 1.3217 13.3499C0.972105 13.3529 0.637688 13.4931 0.390477 13.7403C0.143266 13.9876 0.00303991 14.322 2.01408e-06 14.6716C-0.00303588 15.0212 0.131357 15.358 0.374234 15.6094L7.9169 23.1521Z" fill="#F8E7E1"/>
</svg>
