<svg width="18" height="24" viewBox="0 0 18 24" fill="none" xmlns="http://www.w3.org/2000/svg">
<path d="M7.9169 0.390382C8.16694 0.14042 8.50602 0 8.85957 0C9.21312 0 9.5522 0.14042 9.80224 0.390382L17.3449 7.93305C17.4722 8.05604 17.5738 8.20317 17.6437 8.36584C17.7136 8.52852 17.7504 8.70348 17.7519 8.88051C17.7534 9.05755 17.7197 9.23313 17.6527 9.39699C17.5856 9.56085 17.4866 9.70972 17.3614 9.83491C17.2362 9.9601 17.0874 10.0591 16.9235 10.1261C16.7596 10.1932 16.5841 10.2269 16.407 10.2254C16.23 10.2238 16.055 10.1871 15.8924 10.1172C15.7297 10.0473 15.5826 9.94573 15.4596 9.81838L10.1929 4.55172V22.209C10.1929 22.5627 10.0524 22.9018 9.80238 23.1519C9.55233 23.4019 9.21319 23.5424 8.85957 23.5424C8.50595 23.5424 8.16681 23.4019 7.91676 23.1519C7.66671 22.9018 7.52624 22.5627 7.52624 22.209V4.55172L2.25957 9.81838C2.0081 10.0613 1.6713 10.1957 1.3217 10.1926C0.972105 10.1896 0.637688 10.0494 0.390477 9.80214C0.143266 9.55493 0.00303991 9.22051 2.01408e-06 8.87092C-0.00303588 8.52132 0.131357 8.18452 0.374234 7.93305L7.9169 0.390382Z" fill="#F8E7E1"/>
</svg>
