<svg width="18" height="24" viewBox="0 0 18 24" fill="none" xmlns="http://www.w3.org/2000/svg">
<path d="M9.83505 0.390382C9.58501 0.14042 9.24594 0 8.89238 0C8.53883 0 8.19975 0.14042 7.94972 0.390382L0.407051 7.93305C0.279704 8.05604 0.178128 8.20317 0.108249 8.36584C0.0383705 8.52851 0.00158876 8.70347 5.03418e-05 8.88051C-0.00148808 9.05755 0.0322479 9.23313 0.0992891 9.39699C0.16633 9.56085 0.265334 9.70972 0.390525 9.83491C0.515715 9.9601 0.664584 10.0591 0.828446 10.1261C0.992307 10.1932 1.16788 10.2269 1.34492 10.2254C1.52196 10.2238 1.69692 10.1871 1.85959 10.1172C2.02226 10.0473 2.16939 9.94573 2.29238 9.81838L7.55905 4.55172V22.209C7.55905 22.5627 7.69953 22.9018 7.94958 23.1519C8.19962 23.4019 8.53876 23.5424 8.89238 23.5424C9.24601 23.5424 9.58514 23.4019 9.83519 23.1519C10.0852 22.9018 10.2257 22.5627 10.2257 22.209V4.55172L15.4924 9.81838C15.7439 10.0613 16.0807 10.1957 16.4303 10.1926C16.7798 10.1896 17.1143 10.0494 17.3615 9.80214C17.6087 9.55493 17.7489 9.22051 17.752 8.87092C17.755 8.52132 17.6206 8.18452 17.3777 7.93305L9.83505 0.390382Z" fill="#15151D"/>
</svg>
